<mxfile host="app.diagrams.net" modified="2024-06-17T09:34:49.847Z" agent="Mozilla/5.0 (Macintosh; Intel Mac OS X 10_15_7) AppleWebKit/537.36 (KHTML, like Gecko) Chrome/125.0.0.0 Safari/537.36" version="24.5.4" etag="ccw_ySdmj53vm7T8sXhg" type="github">
  <diagram name="Trang-1" id="hVGD9JxRbNwR1KyhROZB">
    <mxGraphModel>
      <root>
        <mxCell id="0" />
        <mxCell id="1" parent="0" />
      </root>
    </mxGraphModel>
  </diagram>
</mxfile>
